#!OML:ASF X:\für Bonn\!DataBase\2005_08_11_Bastian_Final\c3d\Bastian.ASF
:FULLY-SPECIFIED
:DEGREES
31
root -23.8736 17.6481 -25.7506 176.787 132.275 -548.639
lowerback 4.91309 -2.07873 -1.52886
upperback 4.39952 -2.77864 1.47075
thorax 1.92392 -1.4311 2.45334
lowerneck -4.40466 1.94304 -6.6898
upperneck -0.332465 2.8773 8.19783
head 0.440397 1.53398 3.91566
rclavicle 9.93923e-016 3.10104e-014
rhumerus -44.9064 14.8557 -92.9851
rradius 72.9048
rwrist 3.9875
rhand -8.58753 12.6587
rfingers 7.12502
rthumb 17.3434 -16.5874
lclavicle 9.93923e-016 3.10104e-014
lhumerus -31.1408 0.643264 82.1559
lradius 48.3564
lwrist 185.286
lhand -21.0323 9.42515
lfingers 7.12502
lthumb 5.34317 39.3378
rfemur -38.7335 3.14477 24.1457
rtibia 60.492
rfoot -22.2667 -2.72667
rtoes -13.6118
lfemur 4.1818 4.13682 -16.0078
ltibia 17.7061
lfoot -23.4249 -0.521508
ltoes -18.4056
32
root -23.8251 17.6388 -25.6923 176.772 132.245 -548.57
lowerback 5.2814 -2.16493 -1.63802
upperback 4.44218 -2.89802 1.50294
thorax 1.77754 -1.4922 2.56546
lowerneck -4.43103 2.07611 -6.70693
upperneck -0.347966 3.05923 8.15117
head 0.425323 1.62494 3.90452
rclavicle 3.24019e-014 -2.06736e-014
rhumerus -45.0758 14.7009 -92.7772
rradius 72.9034
rwrist 3.73927
rhand -9.12208 12.3889
rfingers 7.12502
rthumb 16.8289 -16.9019
lclavicle 3.24019e-014 -2.06736e-014
lhumerus -30.9444 -0.0170673 82.7056
lradius 49.2163
lwrist 185.651
lhand -21.1651 9.38946
lfingers 7.12502
lthumb 5.21497 39.3053
rfemur -39.5815 3.17573 24.0505
rtibia 60.8435
rfoot -22.4323 -2.77562
rtoes -14.4302
lfemur 4.87004 3.99396 -16.0404
ltibia 17.03
lfoot -23.3977 -0.366155
ltoes -18.4418
33
root -23.7737 17.6291 -25.631 176.793 132.227 -548.5
lowerback 5.62015 -2.24823 -1.76616
upperback 4.45424 -3.01533 1.54429
thorax 1.61827 -1.55253 2.69822
lowerneck -4.44096 2.22952 -6.6657
upperneck -0.336238 3.2633 8.04686
head 0.416068 1.72601 3.86164
rclavicle -6.99722e-014 -3.97569e-015
rhumerus -45.2954 14.6027 -92.5552
rradius 72.767
rwrist 3.53299
rhand -9.6673 12.0104
rfingers 7.12502
rthumb 16.304 -17.3242
lclavicle -6.99722e-014 -3.97569e-015
lhumerus -30.7932 -0.715391 83.2612
lradius 50.1078
lwrist 186.097
lhand -21.32 9.36579
lfingers 7.12502
lthumb 5.06538 39.2853
rfemur -40.4497 3.22428 23.9494
rtibia 61.1176
rfoot -22.5686 -2.82009
rtoes -15.229
lfemur 5.55344 3.85903 -16.0728
ltibia 16.3123
lfoot -23.3146 -0.183882
ltoes -18.696
34
root -23.7194 17.6177 -25.5664 176.744 132.197 -548.474
lowerback 5.97837 -2.32294 -1.84705
upperback 4.48222 -3.11962 1.57486
thorax 1.46148 -1.60481 2.79455
lowerneck -4.46691 2.36292 -6.59704
upperneck -0.302985 3.43891 7.94034
head 0.419741 1.81316 3.81305
rclavicle -5.96354e-014 1.43125e-014
rhumerus -45.5736 14.4284 -92.3235
rradius 72.5746
rwrist 3.28316
rhand -10.1861 11.6637
rfingers 7.12502
rthumb 15.8044 -17.7112
lclavicle -5.96354e-014 1.43125e-014
lhumerus -30.628 -1.52368 83.8082
lradius 51.0518
lwrist 186.592
lhand -21.469 9.37679
lfingers 7.12502
lthumb 4.92155 39.2996
rfemur -41.2441 3.2683 23.874
rtibia 61.3178
rfoot -22.6973 -2.89052
rtoes -15.9824
lfemur 6.31553 3.81105 -16.0437
ltibia 15.5493
lfoot -23.2298 -0.109225
ltoes -18.9666
35
root -23.6634 17.6058 -25.4987 176.722 132.158 -548.408
lowerback 6.32793 -2.40146 -1.98991
upperback 4.51691 -3.23227 1.62143
thorax 1.32246 -1.66311 2.94292
lowerneck -4.52053 2.50083 -6.6057
upperneck -0.271153 3.62583 7.86119
head 0.425519 1.90676 3.79005
rclavicle -3.97569e-015 7.95139e-016
rhumerus -45.8344 14.3038 -92.0306
rradius 72.2309
rwrist 3.1002
rhand -10.696 11.3471
rfingers 7.12502
rthumb 15.3133 -18.0659
lclavicle -3.97569e-015 7.95139e-016
lhumerus -30.4454 -2.42503 84.4012
lradius 52.0022
lwrist 187.218
lhand -21.5514 9.43342
lfingers 7.12502
lthumb 4.84197 39.3581
rfemur -42.0136 3.34643 23.7471
rtibia 61.4523
rfoot -22.9172 -2.93959
rtoes -16.7452
lfemur 7.10835 3.83678 -16.0161
ltibia 14.7334
lfoot -23.0766 -0.11779
ltoes -19.0574
36
root -23.6019 17.5925 -25.429 176.749 132.094 -548.307
lowerback 6.62674 -2.48476 -2.10162
upperback 4.55538 -3.34997 1.63924
thorax 1.21308 -1.72308 3.04285
lowerneck -4.55734 2.63281 -6.61015
upperneck -0.29227 3.80649 7.80468
head 0.411587 1.99717 3.77298
rclavicle -4.21423e-014 -7.95139e-015
rhumerus -46.0846 14.1752 -91.724
rradius 71.7638
rwrist 2.97246
rhand -11.1824 11.1107
rfingers 7.12502
rthumb 14.8448 -18.3375
lclavicle -4.21423e-014 -7.95139e-015
lhumerus -30.2473 -3.37554 84.9472
lradius 53.0014
lwrist 187.904
lhand -21.7174 9.54416
lfingers 7.12502
lthumb 4.68162 39.4724
rfemur -42.7814 3.38613 23.5776
rtibia 61.5094
rfoot -23.1397 -2.955
rtoes -17.5612
lfemur 7.91315 3.93361 -16.0004
ltibia 13.8903
lfoot -22.9205 -0.204876
ltoes -19.4377
37
root -23.5359 17.5777 -25.3566 176.737 132.04 -548.244
lowerback 6.93132 -2.57255 -2.19225
upperback 4.58964 -3.47314 1.68071
thorax 1.09754 -1.78542 3.15706
lowerneck -4.65809 2.77375 -6.64549
upperneck -0.228613 3.99982 7.73348
head 0.435081 2.0949 3.75974
rclavicle 8.98507e-014 -3.02153e-014
rhumerus -46.3527 14.0505 -91.3803
rradius 71.1821
rwrist 2.97601
rhand -11.6156 10.9117
rfingers 7.12502
rthumb 14.4274 -18.5669
lclavicle 8.98507e-014 -3.02153e-014
lhumerus -30.1474 -4.37222 85.4988
lradius 54.1416
lwrist 188.664
lhand -21.9045 9.66762
lfingers 7.12502
lthumb 4.50099 39.5998
rfemur -43.4951 3.41757 23.4373
rtibia 61.4899
rfoot -23.3691 -2.90211
rtoes -18.1515
lfemur 8.77287 4.00085 -15.9661
ltibia 12.9925
lfoot -22.7437 -0.255327
ltoes -19.5386
38
root -23.4656 17.5614 -25.2831 176.703 131.971 -548.222
lowerback 7.20746 -2.64919 -2.18097
upperback 4.63482 -3.57548 1.69634
thorax 0.999766 -1.83483 3.18558
lowerneck -4.719 2.89184 -6.67338
upperneck -0.240276 4.16391 7.67067
head 0.429654 2.17736 3.74568
rclavicle -1.09332e-014 -3.18055e-015
rhumerus -46.5756 13.8318 -91.0129
rradius 70.4905
rwrist 2.99546
rhand -11.9967 10.7651
rfingers 7.12502
rthumb 14.0602 -18.7393
lclavicle -1.09332e-014 -3.18055e-015
lhumerus -30.0299 -5.33702 86.0046
lradius 55.3682
lwrist 189.356
lhand -22.1911 9.82472
lfingers 7.12502
lthumb 4.22423 39.7626
rfemur -44.1737 3.42854 23.3137
rtibia 61.3814
rfoot -23.568 -2.74635
rtoes -18.2242
lfemur 9.63621 4.08861 -15.8954
ltibia 12.0902
lfoot -22.5084 -0.321927
ltoes -19.7515
39
root -23.3909 17.5428 -25.207 176.685 131.881 -548.164
lowerback 7.48062 -2.7371 -2.17831
upperback 4.67343 -3.69322 1.69827
thorax 0.897809 -1.89181 3.20644
lowerneck -4.76723 3.015 -6.68101
upperneck -0.244759 4.33272 7.59923
head 0.424573 2.26182 3.72449
rclavicle -5.76476e-014 1.03368e-014
rhumerus -46.8017 13.594 -90.6579
rradius 69.6579
rwrist 3.09869
rhand -12.4078 10.674
rfingers 7.12502
rthumb 13.664 -18.8574
lclavicle -5.76476e-014 1.03368e-014
lhumerus -29.9356 -6.20706 86.4929
lradius 56.6852
lwrist 189.978
lhand -22.5434 9.91158
lfingers 7.12502
lthumb 3.88407 39.8559
rfemur -44.7821 3.4234 23.1501
rtibia 61.1979
rfoot -23.8244 -2.55355
rtoes -18.1687
lfemur 10.5375 4.06144 -15.8755
ltibia 11.1882
lfoot -22.33 -0.338352
ltoes -19.8111
40
root -23.3129 17.521 -25.1291 176.694 131.777 -548.103
lowerback 7.69555 -2.824 -2.1928
upperback 4.72059 -3.80992 1.71132
thorax 0.83894 -1.9496 3.2455
lowerneck -4.76048 3.14488 -6.6803
upperneck -0.315539 4.51032 7.50961
head 0.388418 2.3495 3.69278
rclavicle -9.93923e-015 -1.66979e-014
rhumerus -47.008 13.3758 -90.2698
rradius 68.7558
rwrist 3.16183
rhand -12.8223 10.6552
rfingers 7.12502
rthumb 13.2645 -18.9027
lclavicle -9.93923e-015 -1.66979e-014
lhumerus -29.8048 -6.95322 86.9881
lradius 58.0862
lwrist 190.515
lhand -22.9585 9.97923
lfingers 7.12502
lthumb 3.4832 39.9305
rfemur -45.3728 3.39457 22.9778
rtibia 60.9458
rfoot -24.1316 -2.35609
rtoes -18.3149
lfemur 11.4279 4.03769 -15.8592
ltibia 10.2762
lfoot -22.1246 -0.355469
ltoes -19.996
41
root -23.2309 17.4948 -25.0489 176.653 131.665 -548.087
lowerback 7.90891 -2.92238 -2.17738
upperback 4.77159 -3.93965 1.74697
thorax 0.785713 -2.01366 3.29238
lowerneck -4.73039 3.27858 -6.70579
upperneck -0.404536 4.69374 7.39425
head 0.342025 2.4394 3.65615
rclavicle 3.27995e-014 -9.54166e-015
rhumerus -47.2393 13.2072 -89.8706
rradius 67.798
rwrist 3.19764
rhand -13.2393 10.5917
rfingers 7.12502
rthumb 12.8626 -18.9919
lclavicle 3.27995e-014 -9.54166e-015
lhumerus -29.6509 -7.6059 87.4927
lradius 59.5491
lwrist 190.977
lhand -23.4574 10.0119
lfingers 7.12502
lthumb 3.00134 39.9705
rfemur -45.8863 3.36049 22.8251
rtibia 60.6374
rfoot -24.4362 -2.13196
rtoes -18.5275
lfemur 12.3964 4.01027 -15.8077
ltibia 9.29571
lfoot -21.8635 -0.399652
ltoes -20.0344
42
root -23.1466 17.4653 -24.9658 176.669 131.53 -548.029
lowerback 8.07441 -3.00192 -2.15942
upperback 4.81513 -4.044 1.74029
thorax 0.745936 -2.06455 3.29048
lowerneck -4.61427 3.39606 -6.65505
upperneck -0.562091 4.84979 7.28022
head 0.26261 2.51432 3.60148
rclavicle -9.93923e-016 1.82882e-014
rhumerus -47.4927 12.9479 -89.5205
rradius 66.744
rwrist 3.15239
rhand -13.6872 10.6028
rfingers 7.12502
rthumb 12.4307 -19.0076
lclavicle -9.93923e-016 1.82882e-014
lhumerus -29.4776 -8.28144 87.9621
lradius 61.0816
lwrist 191.435
lhand -23.9717 10.0146
lfingers 7.12502
lthumb 2.50472 39.9796
rfemur -46.3763 3.32721 22.6153
rtibia 60.2883
rfoot -24.6647 -1.85436
rtoes -18.5207
lfemur 13.4053 3.96175 -15.7843
ltibia 8.20544
lfoot -21.5432 -0.477679
ltoes -19.8134
